<svg width="19" height="16" viewBox="0 0 19 16" fill="none" xmlns="http://www.w3.org/2000/svg">
<g clip-path="url(#clip0_28_270)">
<path d="M16.0843 1.42491C14.8733 0.820864 13.5747 0.375831 12.2169 0.120942C12.1922 0.116023 12.1675 0.128317 12.1548 0.152904C11.9877 0.475817 11.8027 0.897082 11.6732 1.2282C10.2128 0.990522 8.75994 0.990522 7.3295 1.2282C7.19993 0.889722 7.00822 0.475817 6.84046 0.152904C6.82772 0.129137 6.80302 0.116843 6.77829 0.120942C5.42126 0.375017 4.12265 0.820049 2.91091 1.42491C2.90042 1.42982 2.89143 1.43803 2.88546 1.44868C0.422268 5.44908 -0.252502 9.35117 0.0785176 13.2049C0.0800154 13.2237 0.0897511 13.2418 0.103232 13.2532C1.72837 14.5506 3.3026 15.3383 4.8476 15.8603C4.87232 15.8685 4.89852 15.8587 4.91426 15.8366C5.27973 15.294 5.60551 14.7219 5.88484 14.1203C5.90132 14.0851 5.88558 14.0433 5.85189 14.0294C5.33515 13.8163 4.8431 13.5565 4.36979 13.2614C4.33235 13.2377 4.32935 13.1794 4.36379 13.1516C4.46339 13.0704 4.56302 12.986 4.65813 12.9008C4.67534 12.8852 4.69932 12.8819 4.71955 12.8918C7.82902 14.4351 11.1954 14.4351 14.2682 12.8918C14.2884 12.8811 14.3124 12.8844 14.3303 12.9C14.4255 12.9852 14.5251 13.0704 14.6254 13.1516C14.6599 13.1794 14.6576 13.2377 14.6202 13.2614C14.1469 13.5622 13.6548 13.8163 13.1373 14.0286C13.1036 14.0425 13.0886 14.0851 13.1051 14.1203C13.3905 14.7211 13.7162 15.2932 14.075 15.8357C14.0899 15.8587 14.1169 15.8685 14.1416 15.8603C15.6941 15.3383 17.2683 14.5506 18.8935 13.2532C18.9077 13.2418 18.9167 13.2245 18.9182 13.2057C19.3144 8.75038 18.2546 4.8803 16.109 1.44949C16.1038 1.43803 16.0948 1.42982 16.0843 1.42491ZM6.34918 10.8584C5.41302 10.8584 4.64165 9.92405 4.64165 8.77662C4.64165 7.62919 5.39806 6.69487 6.34918 6.69487C7.30777 6.69487 8.07168 7.63739 8.0567 8.77662C8.0567 9.92405 7.30028 10.8584 6.34918 10.8584ZM12.6625 10.8584C11.7264 10.8584 10.955 9.92405 10.955 8.77662C10.955 7.62919 11.7114 6.69487 12.6625 6.69487C13.6211 6.69487 14.385 7.63739 14.37 8.77662C14.37 9.92405 13.6211 10.8584 12.6625 10.8584Z" fill="#39BEF0"/>
</g>
<defs>
<clipPath id="clip0_28_270">
<rect width="19" height="16" fill="white"/>
</clipPath>
</defs>
</svg>
