<svg width="14" height="13" viewBox="0 0 14 13" fill="none" xmlns="http://www.w3.org/2000/svg">
<g clip-path="url(#clip0_28_49)">
<path d="M11.0833 0H2.91667C1.30608 0 0 1.21279 0 2.70833V10.2917C0 11.7872 1.30608 13 2.91667 13H11.0833C12.6945 13 14 11.7872 14 10.2917V2.70833C14 1.21279 12.6945 0 11.0833 0ZM4.66667 10.2917H2.91667V4.33333H4.66667V10.2917ZM3.79167 3.6465C3.22817 3.6465 2.77083 3.21858 2.77083 2.691C2.77083 2.16342 3.22817 1.7355 3.79167 1.7355C4.35517 1.7355 4.8125 2.16342 4.8125 2.691C4.8125 3.21858 4.35575 3.6465 3.79167 3.6465ZM11.6667 10.2917H9.91667V7.25617C9.91667 5.43183 7.58333 5.56996 7.58333 7.25617V10.2917H5.83333V4.33333H7.58333V5.28938C8.39767 3.88863 11.6667 3.78517 11.6667 6.63054V10.2917Z" fill="white" fill-opacity="0.7"/>
</g>
<defs>
<clipPath id="clip0_28_49">
<rect width="14" height="13" fill="white"/>
</clipPath>
</defs>
</svg>
