<svg width="18" height="18" viewBox="0 0 18 18" fill="none" xmlns="http://www.w3.org/2000/svg">
<path d="M18 9C18 13.968 13.968 18 9 18C4.032 18 0 13.968 0 9C0 4.032 4.032 0 9 0C13.968 0 18 4.032 18 9Z" fill="#39BEF0"/>
<path d="M4.4458 9.306L4.4818 9.252L6.8218 5.598C6.8578 5.544 6.9298 5.544 6.9658 5.616C7.3618 6.498 7.6858 7.578 7.5418 8.262C7.4698 8.55 7.2898 8.928 7.0738 9.27C7.0558 9.324 7.0198 9.378 6.9838 9.414C6.9658 9.432 6.9478 9.45 6.9118 9.45H4.4998C4.4458 9.432 4.4098 9.36 4.4458 9.306Z" fill="#080A10"/>
<path d="M14.8684 9.99V10.566C14.8684 10.602 14.8504 10.62 14.8144 10.638C14.6344 10.71 14.0044 10.998 13.7524 11.358C13.0864 12.276 12.5824 13.59 11.4664 13.59H6.78639C5.13039 13.59 3.78039 12.24 3.78039 10.566V10.512C3.78039 10.476 3.81639 10.44 3.85239 10.44H6.48039C6.53439 10.44 6.57039 10.494 6.57039 10.53C6.55239 10.692 6.58839 10.872 6.66039 11.034C6.82239 11.358 7.14639 11.538 7.48839 11.538H8.78439V10.53H7.50639C7.43439 10.53 7.39839 10.458 7.43439 10.404C7.45239 10.386 7.47039 10.368 7.48839 10.332C7.61439 10.152 7.77639 9.9 7.95639 9.594C8.08239 9.396 8.19039 9.162 8.28039 8.946C8.29839 8.91 8.31639 8.874 8.33439 8.82C8.35239 8.748 8.38839 8.676 8.40639 8.622C8.42439 8.568 8.44239 8.514 8.46039 8.46C8.49639 8.28 8.51439 8.082 8.51439 7.866C8.51439 7.794 8.51439 7.704 8.49639 7.614C8.49639 7.524 8.47839 7.434 8.47839 7.344C8.47839 7.272 8.46039 7.182 8.44239 7.11C8.42439 6.984 8.40639 6.876 8.37039 6.75L8.35239 6.714C8.33439 6.642 8.31639 6.552 8.28039 6.48C8.20839 6.228 8.11839 5.976 8.02839 5.76C7.99239 5.67 7.95639 5.58 7.92039 5.49C7.86639 5.364 7.81239 5.238 7.75839 5.13C7.74039 5.076 7.70439 5.04 7.68639 4.986C7.66839 4.932 7.63239 4.878 7.61439 4.824C7.59639 4.788 7.57839 4.752 7.56039 4.716L7.39839 4.428C7.38039 4.392 7.41639 4.338 7.45239 4.356L8.44239 4.626L8.56839 4.662L8.71239 4.698L8.76639 4.716V4.122C8.76639 3.834 9.00039 3.6 9.27039 3.6C9.41439 3.6 9.54039 3.654 9.63039 3.744C9.72039 3.834 9.77439 3.96 9.77439 4.104V4.968L9.88239 5.004C9.88239 5.004 9.90039 5.004 9.90039 5.022C9.91839 5.04 9.95439 5.076 10.0084 5.112C10.0444 5.148 10.0804 5.184 10.1344 5.22C10.2244 5.292 10.3504 5.4 10.4764 5.508C10.5124 5.544 10.5484 5.562 10.5664 5.598C10.7284 5.742 10.9084 5.922 11.0884 6.12C11.1424 6.174 11.1784 6.228 11.2324 6.282C11.2864 6.336 11.3224 6.408 11.3764 6.462C11.4304 6.534 11.5024 6.624 11.5564 6.696C11.5744 6.732 11.6104 6.768 11.6284 6.822C11.7004 6.93 11.7544 7.038 11.8264 7.146C11.8444 7.2 11.8804 7.254 11.8984 7.308C11.9704 7.452 12.0244 7.596 12.0424 7.758C12.0604 7.794 12.0604 7.83 12.0604 7.848C12.0784 7.884 12.0784 7.938 12.0784 7.992C12.0964 8.154 12.0784 8.298 12.0604 8.46C12.0424 8.532 12.0244 8.586 12.0064 8.658C11.9884 8.712 11.9704 8.784 11.9344 8.856C11.8804 8.982 11.8084 9.108 11.7364 9.234C11.7184 9.27 11.6824 9.324 11.6464 9.378C11.6104 9.432 11.5744 9.468 11.5564 9.522C11.5204 9.576 11.4664 9.63 11.4304 9.684C11.3944 9.738 11.3584 9.792 11.3044 9.846C11.2504 9.918 11.1784 9.99 11.1244 10.062C11.0884 10.098 11.0524 10.152 10.9984 10.188C10.9624 10.224 10.9264 10.278 10.8724 10.314C10.8184 10.368 10.7644 10.422 10.7104 10.458L10.6024 10.548C10.5844 10.566 10.5664 10.566 10.5484 10.566H9.75639V11.574H10.7464C10.9624 11.574 11.1784 11.502 11.3404 11.358C11.3944 11.304 11.6464 11.088 11.9524 10.764C11.9704 10.746 11.9704 10.746 11.9884 10.746L14.7784 9.9C14.8324 9.882 14.8684 9.936 14.8684 9.99Z" fill="#080A10"/>
</svg>
