<svg width="11" height="17" viewBox="0 0 11 17" fill="none" xmlns="http://www.w3.org/2000/svg">
<path d="M1.46603 16.2549C2.60474 16.8003 4.36957 14.4003 5.07086 13.3788C5.68763 13.4197 6.336 13.306 6.94842 13.0903C9.60213 12.1555 10.9651 9.26591 10.0393 6.63756C9.82352 6.02515 9.48023 5.45767 9.08727 4.99374C9.58197 3.38522 10.1463 0.834419 9.10208 0.312995C8.04135 -0.173855 6.40747 1.86458 5.48066 3.22368C4.8639 3.18279 4.21552 3.29643 3.60311 3.51216C0.949388 4.44698 -0.422586 7.3111 0.512266 9.9649C0.736999 10.6029 1.07129 11.1448 1.46425 11.6087C0.9861 13.1827 0.421777 15.7334 1.46597 16.2549L1.46603 16.2549ZM6.79421 12.5709C6.3349 12.7327 5.89963 12.8 5.44648 12.8162C5.88809 12.1156 6.33728 11.355 6.79397 10.5345C6.93949 10.5405 7.07613 10.5211 7.20369 10.4762C7.89265 10.2335 8.2563 9.4743 8.0136 8.78534C7.96866 8.65778 7.89815 8.53914 7.80221 8.42955C8.23051 7.44688 8.60777 6.48209 8.91744 5.56997C9.18882 5.93334 9.41818 6.34014 9.57098 6.7739C10.4069 9.147 9.16732 11.735 6.79422 12.5709L6.79421 12.5709ZM5.98869 9.46988C5.84486 9.06158 6.05978 8.61305 6.46799 8.46925C6.8763 8.32541 7.32483 8.54033 7.46863 8.94855C7.61246 9.35685 7.39755 9.80538 6.98933 9.94919C6.58106 10.0931 6.13253 9.87819 5.98869 9.46988ZM8.85414 0.83069C9.23367 1.01248 9.323 2.24316 8.65982 4.51329C7.94739 3.87503 7.05018 3.44534 6.10641 3.29022C7.48521 1.34164 8.50003 0.639944 8.85414 0.83069ZM3.77389 3.99712C5.48357 3.39485 7.28867 3.87764 8.49 5.08942C8.18926 6.02716 7.82105 7.01738 7.37619 8.03455C7.05664 7.86025 6.67095 7.82401 6.31374 7.94984C5.62478 8.19254 5.26114 8.95172 5.50384 9.64068C5.62967 9.99789 5.89964 10.2757 6.23574 10.4155C5.76251 11.2706 5.29686 12.0657 4.82967 12.7752C3.15803 12.5896 1.62495 11.4947 1.02267 9.78496C0.161151 7.42086 1.40077 4.8329 3.77383 3.99694L3.77389 3.99712ZM1.90828 12.0547C2.62071 12.693 3.51792 13.1227 4.46169 13.2778C3.08289 15.2264 2.09344 15.9191 1.71396 15.7373C1.3434 15.581 1.2541 14.3504 1.90828 12.0547Z" fill="#39BEF0" />
</svg>
