<svg width="28" height="25" viewBox="0 0 28 25" fill="none" xmlns="http://www.w3.org/2000/svg">
<path d="M7.2847 0.000431725C7.10416 0.00130366 6.92561 0.0815197 6.80725 0.215365L0.151218 7.60766C-0.0655235 7.84788 -0.0466493 8.25682 0.190969 8.47675L3.92177 11.9045C4.18381 12.1428 4.65502 12.0988 4.8669 11.8167L6.37924 9.77573V24.3751C6.37924 24.7022 6.68258 25 7.0159 25H20.984C21.3173 25 21.6207 24.7022 21.6207 24.3751V9.77573L23.133 11.8167C23.3449 12.099 23.8161 12.1428 24.0782 11.9045L27.809 8.47697C28.0468 8.25681 28.0654 7.8479 27.8487 7.60789L21.1932 0.21503C21.0749 0.0814083 20.8961 0.000972991 20.7158 9.6875e-05C16.2373 -0.000121094 11.763 9.6875e-05 7.28491 9.6875e-05L7.2847 0.000431725ZM7.57317 1.25032H10.3688V1.32836C10.3688 3.2865 12.0062 4.89281 14.0002 4.89281C15.9917 4.89281 17.6352 3.28779 17.6315 1.32836V1.25032H20.4271L26.4857 7.97856L23.7397 10.5176L21.5013 7.49027C21.3447 7.27622 21.0409 7.17856 20.7857 7.26074C20.5306 7.3427 20.3443 7.59796 20.3474 7.86152V11.6898H7.65271V7.86152C7.65582 7.59797 7.4695 7.34294 7.21434 7.26074C6.95918 7.17877 6.65517 7.27621 6.49883 7.49027L4.26035 10.5176L1.51442 7.97856L7.57317 1.25032ZM11.6422 1.25032H16.3578V1.32836C16.361 2.60358 15.2975 3.64292 13.9999 3.64292C12.6985 3.64292 11.6419 2.60508 11.6419 1.32836L11.6422 1.25032ZM7.65265 12.94H20.3473V14.4341H7.65265V12.94ZM7.65265 15.6842H20.3473V23.7506H7.65265V15.6842Z" fill="url(#paint0_linear_210_91)"/>
<defs>
<linearGradient id="paint0_linear_210_91" x1="14" y1="0" x2="14" y2="25" gradientUnits="userSpaceOnUse">
<stop stop-color="white" stop-opacity="0.29"/>
<stop offset="1" stop-color="white" stop-opacity="0.16"/>
</linearGradient>
</defs>
</svg>
