<svg width="30" height="32" viewBox="0 0 30 32" fill="none" xmlns="http://www.w3.org/2000/svg">
<path d="M29.8745 8.42647L27.1584 4.34209V3.08157C27.1584 1.38231 25.7761 0 24.0768 0H5.92318C4.22392 0 2.84161 1.38231 2.84161 3.08157V4.34209L0.12552 8.42647C0.0436903 8.54945 0 8.69392 0 8.84163V11.9974C0 13.4623 0.734383 14.7588 1.85436 15.5385V28.4006C1.85436 30.0999 3.23667 31.4822 4.93593 31.4822H25.0643C26.7636 31.4822 28.1459 30.0999 28.1459 28.4006V15.5385C29.2659 14.7588 30 13.4623 30 11.9974V8.84163C30.0002 8.69392 29.9565 8.54945 29.8747 8.42647H29.8745ZM4.34032 3.08163C4.34032 2.20901 5.05021 1.49912 5.92283 1.49912H24.0771C24.9497 1.49912 25.6596 2.20901 25.6596 3.08163V3.81927H4.34056L4.34032 3.08163ZM3.99266 5.31833H26.007L27.8517 8.092H2.14824L3.99266 5.31833ZM21.3752 9.59131V11.9974C21.3752 13.5483 20.1133 14.8102 18.5623 14.8102C17.0112 14.8102 15.7493 13.5483 15.7493 11.9974V9.59131H21.3752ZM14.2498 9.59131V11.9974C14.2498 13.5483 12.9879 14.8102 11.4368 14.8102C9.88572 14.8102 8.62383 13.5483 8.62383 11.9974V9.59131H14.2498ZM1.49836 11.9974V9.59131H7.12453V11.9974C7.12453 13.5483 5.86264 14.8102 4.31156 14.8102C2.76025 14.8102 1.49836 13.5483 1.49836 11.9974ZM12.6248 29.983H7.22673V21.1118C7.22673 20.6065 7.63773 20.1958 8.14278 20.1958H11.7087C12.214 20.1958 12.6247 20.6068 12.6247 21.1118L12.6248 29.983ZM26.6455 28.4005C26.6455 29.2731 25.9356 29.983 25.063 29.983H14.1236V21.1118C14.1236 19.7799 13.0401 18.6965 11.7082 18.6965H8.14237C6.81066 18.6965 5.72701 19.7799 5.72701 21.1118V29.983H4.93434C4.06172 29.983 3.35184 29.2731 3.35184 28.4005V16.2018C3.66043 16.2721 3.9813 16.3093 4.31068 16.3093C5.78915 16.3093 7.09612 15.5615 7.87329 14.4242C8.65046 15.5616 9.95744 16.3093 11.4359 16.3093C12.9144 16.3093 14.2214 15.5615 14.9985 14.4242C15.7757 15.5616 17.0827 16.3093 18.5611 16.3093C20.0396 16.3093 21.3466 15.5615 22.1238 14.4242C22.9009 15.5616 24.2079 16.3093 25.6864 16.3093C26.0158 16.3093 26.3368 16.2721 26.6452 16.2018L26.6455 28.4005ZM28.4996 11.9973C28.4996 13.5482 27.2378 14.81 25.6864 14.81C24.1354 14.81 22.8735 13.5482 22.8735 11.9973V9.59119H28.4996V11.9973Z" fill="url(#paint0_linear_210_249)"/>
<path d="M21.8561 18.6973H18.0621C16.7303 18.6973 15.6467 19.7807 15.6467 21.1126V22.7973C15.6467 24.1293 16.7302 25.2127 18.0621 25.2127H21.8558C23.1875 25.2127 24.2712 24.1292 24.2712 22.7973V21.1126C24.2712 19.7807 23.1877 18.6973 21.8561 18.6973ZM22.7721 22.7971C22.7721 23.3024 22.3611 23.7131 21.8561 23.7131L18.0621 23.7134C17.557 23.7134 17.146 23.3024 17.146 22.7973V21.1126C17.146 20.6073 17.557 20.1966 18.0621 20.1966H21.8558C22.3609 20.1966 22.7719 20.6076 22.7719 21.1126L22.7721 22.7971Z" fill="url(#paint1_linear_210_249)"/>
<defs>
<linearGradient id="paint0_linear_210_249" x1="15" y1="0" x2="15" y2="31.4822" gradientUnits="userSpaceOnUse">
<stop stop-color="white" stop-opacity="0.26"/>
<stop offset="1" stop-color="white" stop-opacity="0.11"/>
</linearGradient>
<linearGradient id="paint1_linear_210_249" x1="19.9589" y1="18.6973" x2="19.9589" y2="25.2127" gradientUnits="userSpaceOnUse">
<stop stop-color="white" stop-opacity="0.26"/>
<stop offset="1" stop-color="white" stop-opacity="0.11"/>
</linearGradient>
</defs>
</svg>
