<svg width="20" height="33" viewBox="0 0 20 33" fill="none" xmlns="http://www.w3.org/2000/svg">
<path fill-rule="evenodd" clip-rule="evenodd" d="M14.0074 22.186C14.0235 22.2357 14.0285 22.3087 13.9604 22.3748L12.4519 23.8413C12.1025 24.1811 11.9432 24.6702 12.0256 25.1497L12.3817 27.2206C12.3979 27.3138 12.3507 27.3699 12.3083 27.4008C12.266 27.4314 12.198 27.4588 12.1138 27.4148L10.249 26.437C10.0331 26.3237 9.79621 26.2671 9.55935 26.2671C9.32249 26.2671 9.08561 26.3237 8.86947 26.437L7.0049 27.4148C6.92088 27.4586 6.85275 27.4314 6.81039 27.4008C6.76803 27.3699 6.72085 27.3138 6.73696 27.2206L7.09306 25.1497C7.17547 24.6702 7.01618 24.1811 6.66675 23.8413L5.15805 22.3748C5.09015 22.3087 5.09521 22.2357 5.11132 22.186C5.12767 22.1363 5.16657 22.0742 5.26048 22.0606L7.34509 21.7586C7.82803 21.6886 8.24535 21.3863 8.46126 20.9499L9.39375 19.0657C9.43565 18.9808 9.50701 18.9631 9.55926 18.9631C9.61174 18.9631 9.68288 18.9808 9.72477 19.0657L10.6573 20.9499C10.8732 21.3863 11.2905 21.6886 11.7733 21.7586L13.8581 22.0606C13.952 22.0742 13.9909 22.1363 14.0073 22.186M11.8209 20.3772L10.8886 18.4931C10.637 17.9846 10.1276 17.669 9.55925 17.669C8.99088 17.669 8.4815 17.9846 8.23011 18.4931L7.29762 20.3772C7.27069 20.4315 7.21867 20.4693 7.15858 20.4778L5.07374 20.78C4.51138 20.8615 4.05286 21.2471 3.87719 21.7862C3.70155 22.3253 3.84519 22.9058 4.25217 23.3015L5.76087 24.7681C5.80437 24.8105 5.82417 24.8712 5.81404 24.9311L5.45793 27.0019C5.36172 27.5606 5.58776 28.1144 6.04746 28.4477C6.50738 28.7808 7.10564 28.8241 7.6086 28.5603L9.47317 27.5824C9.52703 27.5543 9.59149 27.5543 9.64535 27.5824L11.5099 28.5603C11.7288 28.6749 11.9655 28.7315 12.2012 28.7315C12.5071 28.7315 12.8112 28.636 13.0708 28.4477C13.5307 28.1144 13.7568 27.5605 13.6606 27.0019L13.3045 24.9311C13.2941 24.8712 13.3141 24.8105 13.3577 24.7681L14.8664 23.3015C15.2733 22.9058 15.417 22.3253 15.2413 21.7862C15.0657 21.2471 14.6071 20.8615 14.0448 20.78L11.9597 20.4778C11.8996 20.469 11.8478 20.4315 11.8209 20.3772M17.8016 26.8853L12.9676 31.7062H6.13126L1.29727 26.8853V20.0672L6.13126 15.2461H12.9676L17.8016 20.0672V26.8853ZM1.85662 1.29427H5.39005V11.4177L1.85662 9.3588V1.29427ZM12.2104 1.29427V12.2863L9.54571 13.8389L6.68743 12.1735V1.29404L12.2104 1.29427ZM17.235 9.35869L13.508 11.5303V1.29439H17.235V9.35869ZM18.9092 19.3418L13.6952 14.1418C13.5734 14.0205 13.4086 13.9521 13.2364 13.9521H11.9237L18.2114 10.2884C18.4105 10.1724 18.5329 9.95971 18.5329 9.72974V0.647039C18.5329 0.289553 18.2424 0 17.8842 0H1.20798C0.849571 0 0.559053 0.289582 0.559053 0.647039V9.72974C0.559053 9.9597 0.681513 10.1724 0.880627 10.2884L7.16833 13.9521H5.86271C5.69075 13.9521 5.52571 14.0205 5.40393 14.1418L0.18991 19.3418C0.0683694 19.4631 0 19.6277 0 19.7992V27.1529C0 27.3247 0.0683694 27.4892 0.18991 27.6106L5.40393 32.8106C5.52571 32.9319 5.69075 33 5.86271 33H13.2365C13.4087 33 13.5735 32.9319 13.6952 32.8106L18.9093 27.6106C19.0308 27.4892 19.0994 27.3247 19.0994 27.1529V19.7992C19.0994 19.6277 19.0308 19.4631 18.9093 19.3418H18.9092Z" fill="url(#paint0_linear_210_317)"/>
<defs>
<linearGradient id="paint0_linear_210_317" x1="9.5497" y1="0" x2="9.5497" y2="33" gradientUnits="userSpaceOnUse">
<stop stop-color="white" stop-opacity="0.26"/>
<stop offset="1" stop-color="white" stop-opacity="0.14"/>
</linearGradient>
</defs>
</svg>
