<svg width="18" height="29" viewBox="0 0 18 29" fill="none" xmlns="http://www.w3.org/2000/svg">
<path d="M2.96581 0C1.33414 0 0 1.3342 0 2.96582V26.0342C0 27.6659 1.3342 29 2.96581 29H14.8295C16.4612 29 17.7954 27.6658 17.7954 26.0342V2.96582C17.7954 1.33414 16.4612 0 14.8295 0H2.96581ZM2.96581 1.31807H14.8295C15.7539 1.31807 16.4773 2.04149 16.4773 2.96582V3.29546H1.31807V2.96582C1.31807 2.04149 2.04149 1.31807 2.96581 1.31807ZM1.31807 4.61356H16.4773V22.4092H1.31807V4.61356ZM8.56813 7.67229L3.95458 10.3087C3.75528 10.4232 3.62516 10.6469 3.62493 10.8749V16.1478C3.62516 16.3758 3.75527 16.5995 3.95458 16.7142L8.56813 19.3507C8.76766 19.4638 9.02765 19.4638 9.22717 19.3507L13.8407 16.7142C14.0403 16.5995 14.1704 16.3758 14.1706 16.1478V10.8749C14.1704 10.6469 14.0403 10.4232 13.841 10.3085L9.2274 7.67206C9.13315 7.6185 9.01178 7.57942 8.89776 7.57942C8.78374 7.57942 8.65547 7.62218 8.56811 7.67206L8.56813 7.67229ZM8.89777 9.00072L12.1829 10.8749L8.89777 12.7493L5.61265 10.8749L8.89777 9.00072ZM4.94326 12.008L8.23874 13.8925V17.6514L4.94326 15.7669V12.008ZM12.8524 12.008V15.7669L9.55693 17.6514V13.8925L12.8524 12.008ZM1.31823 23.7275H16.4774V26.0343C16.4774 26.9586 15.754 27.682 14.8297 27.682H2.96597C2.04164 27.682 1.31823 26.9586 1.31823 26.0343V23.7275ZM8.89783 24.7162C8.35188 24.7162 7.90913 25.159 7.90913 25.7049C7.90913 26.2509 8.35187 26.6936 8.89783 26.6936C9.4438 26.6936 9.88654 26.2509 9.88654 25.7049C9.88654 25.159 9.4438 24.7162 8.89783 24.7162Z" fill="url(#paint0_linear_210_88)"/>
<defs>
<linearGradient id="paint0_linear_210_88" x1="8.89768" y1="0" x2="8.89768" y2="29" gradientUnits="userSpaceOnUse">
<stop stop-color="white" stop-opacity="0.22"/>
<stop offset="1" stop-color="white" stop-opacity="0.18"/>
</linearGradient>
</defs>
</svg>
