<svg width="26" height="26" viewBox="0 0 26 26" fill="none" xmlns="http://www.w3.org/2000/svg">
<path fill-rule="evenodd" clip-rule="evenodd" d="M5.74415 4.53472C5.74415 5.03555 5.33806 5.44164 4.83723 5.44164C4.3364 5.44164 3.93032 5.03555 3.93032 4.53472C3.93032 4.03369 4.3364 3.62781 4.83723 3.62781C5.33806 3.62781 5.74415 4.03369 5.74415 4.53472Z" fill="#39BEF0"/>
<path fill-rule="evenodd" clip-rule="evenodd" d="M8.76703 4.53472C8.76703 5.03555 8.36115 5.44164 7.86012 5.44164C7.35929 5.44164 6.9532 5.03555 6.9532 4.53472C6.9532 4.03369 7.35929 3.62781 7.86012 3.62781C8.36115 3.62781 8.76703 4.03369 8.76703 4.53472Z" fill="#39BEF0"/>
<path fill-rule="evenodd" clip-rule="evenodd" d="M11.7904 4.53472C11.7904 5.03555 11.3843 5.44164 10.8835 5.44164C10.3825 5.44164 9.9766 5.03555 9.9766 4.53472C9.9766 4.03369 10.3825 3.62781 10.8835 3.62781C11.3843 3.62781 11.7904 4.03369 11.7904 4.53472Z" fill="#39BEF0"/>
<path fill-rule="evenodd" clip-rule="evenodd" d="M25.9987 14.2081V3.9299C25.9987 1.75937 24.2393 0 22.0688 0H3.93044C1.75991 0 0.000541687 1.75937 0.000541687 3.9299V22.0682C0.000541687 24.2388 1.75991 25.9981 3.93044 25.9981H12.9996C13.5002 25.9981 13.9065 25.5918 13.9065 25.0912C13.9065 24.5906 13.5002 24.1843 12.9996 24.1843H3.93044C2.7612 24.1843 1.81437 23.2375 1.81437 22.0682V3.9299C1.81437 2.76065 2.7612 1.81383 3.93044 1.81383H22.0688C23.238 1.81383 24.1848 2.76065 24.1848 3.9299V14.2081C24.1848 14.7087 24.5911 15.115 25.0918 15.115C25.5924 15.115 25.9987 14.7087 25.9987 14.2081Z" fill="#39BEF0"/>
<path fill-rule="evenodd" clip-rule="evenodd" d="M25.0915 7.25549H0.906917C0.406288 7.25549 0 7.66178 0 8.16241C0 8.66304 0.406288 9.06933 0.906917 9.06933H25.0915C25.5922 9.06933 25.9984 8.66304 25.9984 8.16241C25.9984 7.66178 25.5922 7.25549 25.0915 7.25549Z" fill="#39BEF0"/>
<path fill-rule="evenodd" clip-rule="evenodd" d="M24.4349 24.5712L21.8944 20.9436C21.6077 20.5336 21.0419 20.4332 20.632 20.7211C20.2221 21.0077 20.1216 21.5735 20.4095 21.9835L22.9489 25.6111C23.2367 26.0211 23.8026 26.1215 24.2125 25.8336C24.6224 25.547 24.7228 24.9812 24.435 24.5712H24.4349Z" fill="#39BEF0"/>
<path fill-rule="evenodd" clip-rule="evenodd" d="M25.1729 17.9374C23.1076 16.7451 19.3676 14.5879 17.3496 13.4235C16.7933 13.103 16.1027 13.1332 15.5768 13.5008C15.0521 13.8684 14.7871 14.5081 14.8985 15.1393C15.3023 17.4343 16.0509 21.6872 16.4643 24.0354C16.5769 24.68 17.0617 25.1974 17.6978 25.3522C18.3338 25.5083 19.0012 25.2737 19.4003 24.7536L21.5212 21.9893L24.8442 20.9421C25.4693 20.7449 25.918 20.1971 25.9894 19.5467C26.0607 18.8961 25.7402 18.2637 25.1732 17.9371L25.1729 17.9374ZM23.9455 19.3231L20.7025 20.346C20.5247 20.4016 20.3687 20.5104 20.2563 20.6579L18.1862 23.3568L16.7449 15.1681L23.9458 19.3229L23.9455 19.3231Z" fill="#39BEF0"/>
</svg>
