<svg width="32" height="32" viewBox="0 0 32 32" fill="none" xmlns="http://www.w3.org/2000/svg">
<path d="M18.3618 9.55269C18.5205 9.55292 18.6704 9.48003 18.7685 9.35524C19.221 8.76681 19.5993 8.12463 19.8948 7.44348C19.9552 7.31777 19.9621 7.17291 19.9139 7.04189C19.8657 6.91087 19.7668 6.805 19.6392 6.74825C19.5119 6.69127 19.3668 6.68851 19.2372 6.74017C19.1078 6.79207 19.0044 6.89403 18.9514 7.02297C18.69 7.62594 18.3558 8.19454 17.9561 8.71631C17.8341 8.87154 17.8112 9.08306 17.8975 9.26114C17.9838 9.43898 18.1641 9.55201 18.3618 9.55224L18.3618 9.55269Z" fill="url(#paint0_linear_210_2)"/>
<path d="M29.4515 26.9412V24.8011C29.4515 24.6641 29.397 24.5326 29.3001 24.4357C29.2033 24.3389 29.0718 24.2844 28.9348 24.2844H24.8012V22.2176C24.8012 22.0806 24.7468 21.9492 24.6499 21.8523C24.553 21.7554 24.4216 21.701 24.2845 21.701H16.0175V20.6676C16.0175 20.3822 15.7861 20.1509 15.5008 20.1509C15.2154 20.1509 14.9841 20.3822 14.9841 20.6676V21.701H6.71701C6.43168 21.701 6.20032 21.9323 6.20032 22.2176V24.8011H2.06678C1.78145 24.8011 1.55009 25.0325 1.55009 25.3178V26.9412C0.894983 27.1103 0.364237 27.5894 0.12898 28.2237C-0.106301 28.8581 -0.0161075 29.5674 0.370254 30.1226C0.756622 30.678 1.39023 31.0093 2.06678 31.0093C2.74332 31.0093 3.37699 30.678 3.7633 30.1226C4.14966 29.5674 4.23985 28.8581 4.00457 28.2237C3.76929 27.5894 3.23851 27.1103 2.58346 26.9412V25.8345H10.8505V26.9412C10.1954 27.1103 9.66468 27.5894 9.42942 28.2237C9.19414 28.8581 9.28434 29.5674 9.6707 30.1226C10.0571 30.678 10.6907 31.0093 11.3672 31.0093C12.0438 31.0093 12.6774 30.678 13.0637 30.1226C13.4501 29.5674 13.5403 28.8581 13.305 28.2237C13.0697 27.5894 12.539 27.1103 11.8839 26.9412V25.3178C11.8839 25.1808 11.8295 25.0493 11.7326 24.9524C11.6357 24.8555 11.5042 24.8011 11.3672 24.8011H7.23368V22.7343H23.7678V24.2844H19.6343C19.349 24.2844 19.1176 24.5158 19.1176 24.8011V26.9412C18.4625 27.1103 17.9317 27.5894 17.6965 28.2237C17.4612 28.8581 17.5514 29.5674 17.9378 30.1226C18.3241 30.678 18.9577 31.0093 19.6343 31.0093C20.3108 31.0093 20.9445 30.678 21.3308 30.1226C21.7172 29.5674 21.8074 28.8581 21.5721 28.2237C21.3368 27.5894 20.806 27.1103 20.151 26.9412V25.3178H28.418V26.9412C27.7629 27.1103 27.2322 27.5894 26.9969 28.2237C26.7616 28.8581 26.8518 29.5674 27.2382 30.1226C27.6246 30.678 28.2582 31.0093 28.9347 31.0093C29.6113 31.0093 30.2449 30.678 30.6312 30.1226C31.0176 29.5674 31.1078 28.8581 30.8725 28.2237C30.6372 27.5894 30.1065 27.1103 29.4514 26.9412H29.4515ZM3.10017 28.9346C3.10017 29.2087 2.99129 29.4716 2.79753 29.6654C2.60378 29.8591 2.34081 29.968 2.06678 29.968C1.79275 29.968 1.52979 29.8591 1.33603 29.6654C1.14227 29.4716 1.0334 29.2087 1.0334 28.9346C1.0334 28.6606 1.14227 28.3976 1.33603 28.2039C1.52979 28.0101 1.79275 27.9013 2.06678 27.9013C2.34081 27.9013 2.60378 28.0101 2.79753 28.2039C2.99129 28.3976 3.10017 28.6606 3.10017 28.9346ZM12.4006 28.9346C12.4006 29.2087 12.2917 29.4716 12.098 29.6654C11.9042 29.8591 11.6413 29.968 11.3672 29.968C11.0932 29.968 10.8302 29.8591 10.6365 29.6654C10.4427 29.4716 10.3339 29.2087 10.3339 28.9346C10.3339 28.6606 10.4427 28.3976 10.6365 28.2039C10.8302 28.0101 11.0932 27.9013 11.3672 27.9013C11.6413 27.9013 11.9042 28.0101 12.098 28.2039C12.2917 28.3976 12.4006 28.6606 12.4006 28.9346ZM20.6677 28.9346C20.6677 29.2087 20.5588 29.4716 20.3651 29.6654C20.1713 29.8591 19.9083 29.968 19.6343 29.968C19.3603 29.968 19.0973 29.8591 18.9036 29.6654C18.7098 29.4716 18.6009 29.2087 18.6009 28.9346C18.6009 28.6606 18.7098 28.3976 18.9036 28.2039C19.0973 28.0101 19.3603 27.9013 19.6343 27.9013C19.9083 27.9013 20.1713 28.0101 20.3651 28.2039C20.5588 28.3976 20.6677 28.6606 20.6677 28.9346ZM28.9348 29.968C28.6607 29.968 28.3978 29.8591 28.204 29.6654C28.0103 29.4716 27.9014 29.2087 27.9014 28.9346C27.9014 28.6606 28.0103 28.3976 28.204 28.2039C28.3978 28.0101 28.6607 27.9013 28.9348 27.9013C29.2088 27.9013 29.4718 28.0101 29.6655 28.2039C29.8593 28.3976 29.9681 28.6606 29.9681 28.9346C29.9681 29.2087 29.8593 29.4716 29.6655 29.6654C29.4718 29.8591 29.2088 29.968 28.9348 29.968Z" fill="url(#paint1_linear_210_2)"/>
<path d="M17.3089 10.3338C17.3089 10.6192 17.0775 10.8505 16.7922 10.8505C16.5069 10.8505 16.2755 10.6192 16.2755 10.3338C16.2755 10.0485 16.5069 9.81714 16.7922 9.81714C17.0775 9.81714 17.3089 10.0485 17.3089 10.3338Z" fill="url(#paint2_linear_210_2)"/>
<path d="M5.08489 2.5535C4.79356 2.86328 4.64224 3.27917 4.66623 3.70362C4.7924 6.20034 5.85462 11.9754 11.848 11.9034C12.2733 12.2521 12.7423 12.5437 13.243 12.7709C13.0047 14.9327 12.2542 15.7878 12.003 16.0173C11.4494 15.9961 10.9262 16.2717 10.6307 16.7407C10.3355 17.2096 10.3127 17.8006 10.5712 18.2908C10.8296 18.7809 11.3299 19.0963 11.8838 19.1175H19.1174C19.6713 19.0962 20.1716 18.7812 20.4301 18.291C20.6887 17.8008 20.6659 17.2098 20.3706 16.7409C20.0754 16.272 19.5525 15.9961 18.9986 16.0173C18.7461 15.7878 17.9953 14.9323 17.7586 12.7709C18.2594 12.5437 18.7283 12.2521 19.1536 11.9034C25.1473 11.9751 26.2108 6.20016 26.3354 3.70362C26.3591 3.27782 26.2064 2.8608 25.9133 2.55096C25.6198 2.2414 25.2118 2.0661 24.7853 2.06679H23.2156C23.2255 1.91847 23.2414 1.77431 23.2481 1.62391C23.267 1.20064 23.1123 0.787758 22.8195 0.481167C22.5268 0.174612 22.1218 0.000921188 21.6981 0H9.30394C8.8802 0.000922664 8.47493 0.174612 8.18245 0.481167C7.88974 0.787722 7.73496 1.20064 7.75388 1.62391C7.76056 1.77431 7.77671 1.91847 7.7864 2.06679H6.21347C5.78627 2.06748 5.37802 2.24325 5.08413 2.5535H5.08489ZM19.1177 17.051C19.403 17.051 19.6343 17.2824 19.6343 17.5677C19.6343 17.853 19.403 18.0844 19.1177 18.0844H11.884C11.5986 18.0844 11.3673 17.853 11.3673 17.5677C11.3673 17.2824 11.5986 17.051 11.884 17.051H19.1177ZM13.3208 16.0176C13.8361 15.1219 14.153 14.1264 14.2508 13.0979C15.0729 13.3066 15.934 13.3066 16.7559 13.0979C16.8521 14.1259 17.1674 15.1215 17.6808 16.0176H13.3208ZM23.1285 3.10031H24.7877C24.9307 3.09961 25.0675 3.15843 25.1653 3.26316C25.2626 3.36488 25.3129 3.50282 25.3044 3.64329C25.1581 6.14969 24.2623 10.1707 20.2733 10.7807C21.7473 8.99055 22.7689 6.31964 23.1285 3.10003L23.1285 3.10031ZM8.92919 1.19475C9.02699 1.09164 9.16286 1.03328 9.30495 1.03351H21.6973C21.8394 1.03328 21.9755 1.09141 22.074 1.19405C22.1722 1.2967 22.2244 1.4351 22.2181 1.57696C21.7372 7.10929 20.3022 11.6823 15.5011 12.2208C10.7017 11.6824 9.26659 7.10929 8.78414 1.57696C8.77791 1.4351 8.83051 1.2967 8.92923 1.19475H8.92919ZM7.87367 3.10031C8.23535 6.31974 9.25492 8.99059 10.7289 10.781C6.73995 10.1709 5.84404 6.14991 5.69783 3.64357V3.64334C5.6893 3.50286 5.73958 3.36493 5.83693 3.2632C5.93473 3.15848 6.07152 3.09966 6.21452 3.10035L7.87367 3.10031Z" fill="url(#paint3_linear_210_2)"/>
<defs>
<linearGradient id="paint0_linear_210_2" x1="18.8957" y1="6.70337" x2="18.8957" y2="9.55269" gradientUnits="userSpaceOnUse">
<stop stop-color="white" stop-opacity="0.33"/>
<stop offset="1" stop-color="white" stop-opacity="0.17"/>
</linearGradient>
<linearGradient id="paint1_linear_210_2" x1="15.5008" y1="20.1509" x2="15.5008" y2="31.0093" gradientUnits="userSpaceOnUse">
<stop stop-color="white" stop-opacity="0.33"/>
<stop offset="1" stop-color="white" stop-opacity="0.17"/>
</linearGradient>
<linearGradient id="paint2_linear_210_2" x1="16.7922" y1="9.81714" x2="16.7922" y2="10.8505" gradientUnits="userSpaceOnUse">
<stop stop-color="white" stop-opacity="0.33"/>
<stop offset="1" stop-color="white" stop-opacity="0.17"/>
</linearGradient>
<linearGradient id="paint3_linear_210_2" x1="15.5008" y1="0" x2="15.5008" y2="19.1175" gradientUnits="userSpaceOnUse">
<stop stop-color="white" stop-opacity="0.33"/>
<stop offset="1" stop-color="white" stop-opacity="0.17"/>
</linearGradient>
</defs>
</svg>
