<svg width="28" height="32" viewBox="0 0 28 32" fill="none" xmlns="http://www.w3.org/2000/svg">
<path fill-rule="evenodd" clip-rule="evenodd" d="M11.1549 3.84366L8.64522 3.17086C7.3871 2.83341 6.09208 3.58154 5.75462 4.83968L4.95825 7.81066H2.36033C1.05743 7.81066 0 8.86809 0 10.171V29.0536C0 30.3565 1.05743 31.414 2.36033 31.414H14.949C16.2519 31.414 17.3093 30.3565 17.3093 29.0536V28.5958L18.0559 25.8105L27.6759 9.84729C27.6783 9.84334 27.6814 9.83859 27.6838 9.83464C28.3353 8.7064 27.9475 7.26202 26.82 6.6105L15.918 0.31637C14.7897 -0.335095 13.3453 0.0518849 12.6938 1.18018L11.1556 3.84426L11.1549 3.84366ZM9.05909 14.2736C8.81041 14.1235 8.49877 14.1235 8.25037 14.2736L4.31657 16.634C4.07896 16.7757 3.93407 17.032 3.93407 17.3083V22.029C3.93407 22.3051 4.07896 22.5617 4.31657 22.7034L8.25037 25.0637C8.49905 25.2139 8.81069 25.2139 9.05909 25.0637L12.9929 22.7034C13.2305 22.5617 13.3754 22.3053 13.3754 22.029V17.3083C13.3754 17.0323 13.2305 16.7757 12.9929 16.634L9.05909 14.2736ZM8.65472 15.8653L11.8019 17.7536V21.5836L8.65472 23.4718L5.50752 21.5836V17.7536L8.65472 15.8653ZM11.3196 5.51626L8.23849 4.69095C7.81911 4.57847 7.38709 4.82793 7.2746 5.24732L6.58781 7.81077H14.9488C16.2517 7.81077 17.3091 8.8682 17.3091 10.1711V22.5156L20.9542 8.91338C21.0667 8.49321 20.8172 8.06198 20.3978 7.94949L11.3443 5.52381C11.3364 5.52144 11.3277 5.51907 11.319 5.5167L11.3196 5.51626ZM19.5268 20.3209C22.3782 15.5892 26.3252 9.03922 26.3286 9.0345C26.5354 8.66069 26.405 8.18708 26.0336 7.97235L15.1315 1.67823C14.7554 1.46116 14.2741 1.58998 14.0567 1.96615L12.7293 4.26431L20.8056 6.42866C22.0646 6.76533 22.8119 8.06114 22.4753 9.31926L19.5268 20.3209Z" fill="url(#paint0_linear_208_37)" fill-opacity="0.27"/>
<defs>
<linearGradient id="paint0_linear_208_37" x1="14" y1="0" x2="22" y2="52.707" gradientUnits="userSpaceOnUse">
<stop stop-color="white"/>
<stop offset="1" stop-color="white" stop-opacity="0"/>
</linearGradient>
</defs>
</svg>
