<svg width="182" height="362" viewBox="0 0 182 362" fill="none" xmlns="http://www.w3.org/2000/svg">
<path d="M1 361C4.10957 205.708 101.629 78.2948 150 34C61.8957 130.927 13.9565 292.386 1 361Z" fill="url(#paint0_linear_22_71)" stroke="url(#paint1_linear_22_71)" stroke-opacity="0.2" stroke-width="0.8"/>
<path d="M155.23 13.5372L158.917 15.0661C158.501 16.1157 158.169 17.1965 157.925 18.2986L157.785 18.9342L163.071 24.223L163.706 24.0864C164.809 23.8421 165.889 23.5104 166.939 23.0947L168.468 26.7817C168.498 26.8559 168.564 26.9096 168.642 26.9251C168.721 26.9404 168.802 26.9151 168.858 26.8577L171.169 24.5471C171.932 23.7846 172.336 22.7351 172.282 21.6581L172.199 20.1738C176.477 17.0145 180.806 11.4747 181.985 1.80627C182.053 1.31498 181.887 0.820127 181.537 0.468294C181.188 0.116671 180.694 -0.0513791 180.202 0.0138C170.537 1.20234 164.994 5.5345 161.835 9.79974L160.353 9.72348C159.279 9.66495 158.229 10.0634 157.464 10.82L155.154 13.1306C155.089 13.186 155.058 13.2721 155.074 13.3563C155.089 13.4403 155.149 13.5093 155.23 13.5372ZM170.053 7.90528C170.59 7.37008 171.318 7.07011 172.076 7.07102C172.834 7.0719 173.561 7.37364 174.096 7.90993C174.632 8.44622 174.933 9.17344 174.933 9.93143C174.933 10.6894 174.632 11.4166 174.096 11.9529C173.561 12.4892 172.834 12.7912 172.076 12.7918C171.318 12.7927 170.59 12.4928 170.053 11.9576C169.515 11.4208 169.212 10.6918 169.212 9.93143C169.212 9.171 169.515 8.44202 170.053 7.90528Z" fill="url(#paint2_linear_22_71)" fill-opacity="0.4"/>
<path d="M153.42 24.3956C154.058 24.281 154.715 24.3335 155.327 24.5483C152.409 26.8876 152.962 29.6018 153.318 30.8159C153.354 30.9387 153.454 31.0318 153.579 31.0585C153.704 31.0851 153.833 31.0407 153.916 30.9432C154.923 29.7925 157.39 29.3571 158.725 29.2141C159.659 29.1215 160.52 28.665 161.121 27.9426C162.497 26.2486 161.255 24.4942 160.803 23.957C160.773 23.9193 160.726 23.8974 160.678 23.8974C160.629 23.8974 160.583 23.9193 160.552 23.957C159.851 24.8297 158.778 25.3179 157.66 25.2729C157.525 25.268 157.417 25.1598 157.412 25.025C157.374 23.9018 157.874 22.8279 158.756 22.1326C158.791 22.102 158.81 22.0579 158.81 22.0118C158.81 21.9659 158.791 21.9218 158.756 21.8912C155.505 19.5265 153.709 22.4537 153.032 23.9094C152.971 24.0415 152.999 24.1976 153.102 24.3003C153.184 24.3847 153.304 24.4206 153.42 24.3956Z" fill="url(#paint3_linear_22_71)"/>
<defs>
<linearGradient id="paint0_linear_22_71" x1="172" y1="8" x2="52" y2="211" gradientUnits="userSpaceOnUse">
<stop stop-color="#39BEF0" stop-opacity="0.11"/>
<stop offset="1" stop-color="#39BEF0" stop-opacity="0"/>
</linearGradient>
<linearGradient id="paint1_linear_22_71" x1="118" y1="85" x2="75.5" y2="361" gradientUnits="userSpaceOnUse">
<stop stop-color="#39BEF0"/>
<stop offset="1" stop-color="white" stop-opacity="0"/>
</linearGradient>
<linearGradient id="paint2_linear_22_71" x1="168.535" y1="0" x2="168.535" y2="26.9295" gradientUnits="userSpaceOnUse">
<stop stop-color="#1D1F29"/>
<stop offset="1" stop-color="#353745"/>
</linearGradient>
<linearGradient id="paint3_linear_22_71" x1="153" y1="31" x2="160.5" y2="23.5" gradientUnits="userSpaceOnUse">
<stop stop-color="#39BEF0"/>
<stop offset="1" stop-color="#13141B"/>
</linearGradient>
</defs>
</svg>
