<svg width="66" height="299" viewBox="0 0 66 299" fill="none" xmlns="http://www.w3.org/2000/svg">
<path d="M-84 298C-81.4331 169.808 -0.932304 64.6312 38.9972 28.0665C-33.7316 108.079 -73.3046 241.361 -84 298Z" fill="url(#paint0_linear_29_2004)" stroke="url(#paint1_linear_29_2004)" stroke-opacity="0.2" stroke-width="0.8"/>
<path d="M43.3143 11.1748L46.3579 12.4369C46.0147 13.3032 45.7409 14.1954 45.5392 15.1052L45.4237 15.6299L49.787 19.9957L50.3117 19.883C51.2214 19.6813 52.1136 19.4075 52.98 19.0643L54.2421 22.1079C54.2672 22.1692 54.3213 22.2135 54.3863 22.2263C54.4513 22.2389 54.5183 22.218 54.5646 22.1706L56.4719 20.2633C57.1013 19.6339 57.4352 18.7675 57.3903 17.8784L57.3222 16.6532C60.8537 14.0452 64.4268 9.47221 65.4004 1.49105C65.4564 1.08549 65.3197 0.677003 65.0309 0.38657C64.7423 0.0963101 64.3345 -0.0424127 63.9286 0.0113917C55.9498 0.99251 51.3743 4.56864 48.7665 8.08954L47.5438 8.02658C46.6567 7.97827 45.7905 8.30714 45.1589 8.93175L43.2516 10.8391C43.1978 10.8849 43.1725 10.9559 43.1855 11.0254C43.1985 11.0948 43.2475 11.1517 43.3143 11.1748ZM55.551 6.52569C55.9943 6.08389 56.5947 5.83627 57.2205 5.83702C57.8464 5.83775 58.4463 6.08683 58.8885 6.52953C59.3307 6.97223 59.5792 7.57254 59.5792 8.19824C59.5792 8.82394 59.3306 9.42425 58.8885 9.86695C58.4463 10.3097 57.8464 10.559 57.2205 10.5595C56.5948 10.5602 55.9943 10.3126 55.551 9.8708C55.1063 9.42772 54.8565 8.82596 54.8565 8.19824C54.8565 7.57052 55.1063 6.96876 55.551 6.52569Z" fill="url(#paint2_linear_29_2004)" fill-opacity="0.4"/>
<path d="M41.8201 20.1382C42.347 20.0436 42.8893 20.0869 43.3944 20.2643C40.9857 22.1953 41.4425 24.4359 41.7362 25.4381C41.7657 25.5394 41.8484 25.6163 41.9515 25.6383C42.0547 25.6602 42.1616 25.6236 42.2296 25.5431C43.0613 24.5932 45.0973 24.2338 46.1992 24.1158C46.9708 24.0393 47.6817 23.6625 48.1776 23.0662C49.3136 21.6678 48.2878 20.2196 47.9152 19.7761C47.8898 19.745 47.8517 19.7269 47.8114 19.7269C47.7713 19.7269 47.7333 19.745 47.7078 19.7761C47.1293 20.4965 46.2434 20.8995 45.3202 20.8624C45.209 20.8583 45.1197 20.769 45.1156 20.6577C45.0847 19.7306 45.4967 18.8441 46.2254 18.2701C46.2538 18.2449 46.2701 18.2085 46.2701 18.1704C46.2701 18.1325 46.2538 18.0961 46.2254 18.0708C43.5413 16.1188 42.0589 18.5352 41.5 19.7368C41.4497 19.8459 41.4727 19.9748 41.5578 20.0595C41.6259 20.1292 41.7249 20.1589 41.8201 20.1382Z" fill="url(#paint3_linear_29_2004)"/>
<defs>
<linearGradient id="paint0_linear_29_2004" x1="57.1579" y1="6.60386" x2="-41.9003" y2="174.177" gradientUnits="userSpaceOnUse">
<stop stop-color="#39BEF0" stop-opacity="0.11"/>
<stop offset="1" stop-color="#39BEF0" stop-opacity="0"/>
</linearGradient>
<linearGradient id="paint1_linear_29_2004" x1="12.5817" y1="70.1662" x2="-22.5014" y2="298" gradientUnits="userSpaceOnUse">
<stop stop-color="#39BEF0"/>
<stop offset="1" stop-color="white" stop-opacity="0"/>
</linearGradient>
<linearGradient id="paint2_linear_29_2004" x1="54.2974" y1="0" x2="54.2974" y2="22.2299" gradientUnits="userSpaceOnUse">
<stop stop-color="#1D1F29"/>
<stop offset="1" stop-color="#353745"/>
</linearGradient>
<linearGradient id="paint3_linear_29_2004" x1="41.4736" y1="25.59" x2="47.6648" y2="19.3989" gradientUnits="userSpaceOnUse">
<stop stop-color="#39BEF0"/>
<stop offset="1" stop-color="#13141B"/>
</linearGradient>
</defs>
</svg>
