<svg width="16" height="13" viewBox="0 0 16 13" fill="none" xmlns="http://www.w3.org/2000/svg">
<path d="M16 1.53879C15.4111 1.80027 14.7785 1.97624 14.1145 2.05561C14.7927 1.64953 15.3126 1.00658 15.5576 0.239955C14.9237 0.615884 14.221 0.889062 13.4727 1.03673C12.874 0.398694 12.0211 0 11.0771 0C9.26426 0 7.79478 1.46988 7.79478 3.28184C7.79478 3.53902 7.82431 3.79005 7.8797 4.02939C5.1518 3.8928 2.73343 2.58597 1.1138 0.599886C0.831968 1.08472 0.670128 1.6483 0.670128 2.25065C0.670128 3.3889 1.24918 4.39363 2.12976 4.98183C1.59194 4.9646 1.0855 4.81693 0.643052 4.57144C0.643052 4.58559 0.643052 4.59851 0.643052 4.61266C0.643052 6.20313 1.77409 7.52965 3.27618 7.83052C3.00112 7.90558 2.71066 7.94557 2.41098 7.94557C2.19992 7.94557 1.99377 7.92465 1.79378 7.88712C2.21161 9.19087 3.42387 10.1402 4.86012 10.1667C3.73709 11.0471 2.32176 11.572 0.783355 11.572C0.518749 11.572 0.257221 11.5566 0 11.5258C1.45287 12.4567 3.17772 13 5.03181 13C11.0697 13 14.3705 7.9991 14.3705 3.66208C14.3705 3.51995 14.3674 3.37844 14.3613 3.23754C15.0031 2.77424 15.56 2.19651 16 1.53879Z" fill="#39BEF0"/>
</svg>
